# xmcd
#
# Track frame offsets:
#	150
#	18118
#	32840
#	44107
#	68104
#	83837
#	98486
#	117773
#	140910
#	162636
#	174883
#	188713
#	211682
#	225145
#	249035
#	267082
#	282835
#	302689
#	319643
#	336498
#
# Disc length: 4595 seconds
#
# Revision: 1
# Processed by: cddbd v1.5.2PL0 Copyright (c) Steve Scherf et al.
# Submitted via: audiograbber 1.83.01
#
DISCID=0711f114
DTITLE=Zé Marco and Adriano - As 20 Melhores
DYEAR=2005
DGENRE=Gospel
TTITLE0=Verdadeiro Amor
TTITLE1=Coração Carente
TTITLE2=Condomínio do Céu
TTITLE3=Coração Abandonado
TTITLE4=Sou Cowboy de Cristo
TTITLE5=Não Desista
TTITLE6=Pedaços
TTITLE7=Vai Saudade
TTITLE8=Chega
TTITLE9=Foi por Amor
TTITLE10=Museu do Céu
TTITLE11=Timidez
TTITLE12=Crista irá voltar
TTITLE13=Deus salva Ela pra mim
TTITLE14=De bem com a Vida
TTITLE15=Minha Vida
TTITLE16=Esse amor
TTITLE17=Pra que brincar de ser feliz
TTITLE18=Cadê seu sorriso
TTITLE19=Te que pagar o preço
EXTD=
EXTT0=
EXTT1=
EXTT2=
EXTT3=
EXTT4=
EXTT5=
EXTT6=
EXTT7=
EXTT8=
EXTT9=
EXTT10=
EXTT11=
EXTT12=
EXTT13=
EXTT14=
EXTT15=
EXTT16=
EXTT17=
EXTT18=
EXTT19=
PLAYORDER=
